{"title":"Dom Hemingway 2013 WEBRip XViD AC3-ReLeNTLesS","uid":9852815,"size":905483044,"categoryP":"video","categoryS":"movies","magnet":"?xt=urn:btih:1f5cc984a940a7eb7b0fe901edbcba4311014a3e&amp;dn=Dom+Hemingway+2013+WEBRip+XViD+AC3-ReLeNTLesS&amp;tr=udp%3A%2F%2Ftracker.openbittorrent.com%3A80&amp;tr=udp%3A%2F%2Fopen.demonii.com%3A1337&amp;tr=udp%3A%2F%2Ftracker.coppersurfer.tk%3A6969&amp;tr=udp%3A%2F%2Fexodus.desync.com%3A6969","seeders":2,"leechers":0,"uploader":"HeroMaster","files":-1,"time":1396174348,"description":":::::::::: ReLeNTLesS PRESENTS :::::::::\n\n\n:::: Dom Hemingway 2013 WEBRip XViD AC3-ReLeNTLesS ::::\n\n\n::Information::\n\n\nDom Hemingway 2013 WEBRip XViD AC3-ReLeNTLesS\n\n\niMDB: http://www.imdb.com/title/tt2402105/\n\n\nSubtitles: Nope\n\n\nSource: ANONYMOUS thanks chaps\n\n\nSample Included: Yes\n\n\nGeneral\nComplete name: Dom.Hemingway.2013.WEBRip.XViD.AC3.ReLeNTLesS.avi\nFormat: AVI\nFormat/Info: Audio Video Interleave\nFile size: 850 MiB\nDuration: 1h 33mn\nOverall bit rate: 1 268 Kbps\n\nVideo\nID: 0\nFormat: MPEG-4 Visual\nFormat profile: Advanced Simple@L5\nFormat settings, BVOP: 2\nFormat settings, QPel: No\nFormat settings, GMC: No warppoints\nFormat settings, Matrix: Default (H.263)\nCodec ID: XVID\nCodec ID/Hint: XviD\nDuration: 1h 33mn\nBit rate: 940 Kbps\nWidth: 720 pixels\nHeight: 304 pixels\nDisplay aspect ratio: 2.35:1\nFrame rate: 24.000 fps\nColor space: YUV\nChroma subsampling: 4:2:0\nBit depth: 8 bits\nScan type: Progressive\nCompression mode: Lossy\nBits/(Pixel*Frame): 0.179\nStream size: 631 MiB (74%)\nWriting library: XviD 1.2.1 (UTC 2008-12-04)\n\nAudio\nID: 1\nFormat: AC-3\nFormat/Info: Audio Coding 3\nMode extension: CM (complete main)\nFormat settings, Endianness: Big\nCodec ID: 2000\nDuration: 1h 33mn\nBit rate mode: Constant\nBit rate: 320 Kbps\nChannel(s): 6 channels\nChannel positions: Front: L C R, Side: L R, LFE\nSampling rate: 48.0 KHz\nBit depth: 16 bits\nCompression mode: Lossy\nStream size: 215 MiB (25%)\nAlignment: Aligned on interleaves\nInterleave, duration: 64 ms (1.54 video frames)\nInterleave, preload duration: 192 ms\nTitle: dom.hemingway.ReLeNTLesS.audio.English\n\n\nPL0T\nAfter spending 12 years in prison for keeping his mouth shut, notorious safe-cracker Dom Hemingway is back on the streets of London looking to collect what\nhe's owed\n\n\nCAST\nDirector: Richard Shepard\nWriter: Richard Shepard\nStars: Jude Law, Richard E. Grant, Demian Bichir\n\n\n::Greetz and Respect::\n\n\nALL CREDIT Goes to ReLeNTLesS for Encoding and ABG for Distribution.\n\n\n::Poster::\n\n &lt;a href=&quot;\nhttp://i.imgur.com/ZJCJ52Y.jpg&quot; rel=&quot;nofollow&quot; target=&quot;_NEW&quot;&gt;\nhttp://i.imgur.com/ZJCJ52Y.jpg&lt;/a&gt;\n\n\n::Screenshots::\n\n &lt;a href=&quot;\nhttp://i.imgur.com/yrVobsl.jpg&quot; rel=&quot;nofollow&quot; target=&quot;_NEW&quot;&gt;\nhttp://i.imgur.com/yrVobsl.jpg&lt;/a&gt;\n\n\nSEED AND ENJOY!","torrent":{"xt":"urn:btih:1f5cc984a940a7eb7b0fe901edbcba4311014a3e","amp;dn":"Dom+Hemingway+2013+WEBRip+XViD+AC3-ReLeNTLesS","amp;tr":["udp%3A%2F%2Ftracker.openbittorrent.com%3A80","udp%3A%2F%2Fopen.demonii.com%3A1337","udp%3A%2F%2Ftracker.coppersurfer.tk%3A6969","udp%3A%2F%2Fexodus.desync.com%3A6969"],"infoHash":"1f5cc984a940a7eb7b0fe901edbcba4311014a3e","infoHashBuffer":{"type":"Buffer","data":[31,92,201,132,169,64,167,235,123,15,233,1,237,188,186,67,17,1,74,62]},"announce":[],"urlList":[]}}